<svg width="27" height="27" viewBox="0 0 27 27" fill="none" xmlns="http://www.w3.org/2000/svg">
<path d="M25.1017 19.807C24.4689 21.2098 24.163 21.8426 23.3509 23.0766C22.2118 24.8062 20.6087 26.9684 18.6154 26.9895C16.8435 27.0105 16.39 25.8398 13.9958 25.8504C11.6017 25.8609 11.0954 27.0105 9.32356 26.9895C7.3302 26.9684 5.81145 25.0172 4.67238 23.2875C1.48723 18.4359 1.14973 12.7512 3.12199 9.72422C4.51418 7.57266 6.71848 6.31758 8.79621 6.31758C10.9056 6.31758 12.2239 7.47773 13.9747 7.47773C15.6622 7.47773 16.6958 6.31758 19.1321 6.31758C20.9779 6.31758 22.929 7.31953 24.3212 9.05976C19.7544 11.5594 20.4927 18.0668 25.1017 19.807ZM17.2759 4.3875C18.1618 3.24844 18.8368 1.64531 18.5943 0C17.1493 0.0949219 15.4513 1.02305 14.4704 2.22539C13.5739 3.31172 12.8357 4.92539 13.1204 6.49688C14.6919 6.54961 16.3267 5.60039 17.2759 4.3875Z" fill="black"/>
</svg>
