<svg width="24" height="23" viewBox="0 0 24 23" fill="none" xmlns="http://www.w3.org/2000/svg">
<g clip-path="url(#clip0_630_2520)">
<path d="M17.6768 7.88928C15.0049 6.39486 10.7165 3.99517 4.06478 0.270736C3.61632 -0.0254343 3.10035 -0.0642469 2.65454 0.086646L14.067 11.4991L17.6768 7.88928Z" fill="#32BBFF"/>
<path d="M2.65454 0.0866699C2.57099 0.114971 2.48968 0.149111 2.41192 0.19035C1.91962 0.456647 1.55786 0.969072 1.55786 1.61716V21.381C1.55786 22.0291 1.91957 22.5415 2.41192 22.8078C2.48954 22.849 2.57081 22.8833 2.65427 22.9117L14.067 11.4991L2.65454 0.0866699Z" fill="#32BBFF"/>
<path d="M14.067 11.499L2.6543 22.9117C3.10024 23.0637 3.61621 23.0278 4.0648 22.7274C10.5155 19.1152 14.7556 16.7439 17.4584 15.2368C17.5336 15.1945 17.6073 15.1532 17.6802 15.1123L14.067 11.499Z" fill="#32BBFF"/>
<path d="M1.55786 11.499V21.381C1.55786 22.029 1.91957 22.5415 2.41192 22.8077C2.48954 22.8489 2.57081 22.8832 2.65427 22.9117L14.067 11.499H1.55786Z" fill="#2C9FD9"/>
<path d="M4.06472 0.270786C3.53217 -0.0808636 2.90417 -0.070846 2.41187 0.19042L13.8937 11.6723L17.6767 7.88933C15.0048 6.39491 10.7164 3.99522 4.06472 0.270786Z" fill="#29CC5E"/>
<path d="M13.8938 11.3259L2.41187 22.8078C2.90421 23.069 3.53217 23.0841 4.06472 22.7274C10.5154 19.1152 14.7555 16.744 17.4583 15.2368C17.5335 15.1946 17.6073 15.1532 17.6801 15.1123L13.8938 11.3259Z" fill="#D93F21"/>
<path d="M22.4422 11.4992C22.4422 10.9516 22.1659 10.399 21.6182 10.0925C21.6182 10.0925 20.594 9.52105 17.4548 7.76514L13.7207 11.4992L17.4584 15.2369C20.5632 13.4936 21.6182 12.9058 21.6182 12.9058C22.1659 12.5994 22.4422 12.0468 22.4422 11.4992Z" fill="#FFD500"/>
<path d="M21.6182 12.9057C22.1659 12.5993 22.4422 12.0466 22.4422 11.499H13.7207L17.4584 15.2368C20.5633 13.4935 21.6182 12.9057 21.6182 12.9057Z" fill="#FFAA00"/>
</g>
<defs>
<clipPath id="clip0_630_2520">
<rect width="23" height="23" fill="white" transform="translate(0.5)"/>
</clipPath>
</defs>
</svg>
